<?xml version="1.0" standalone="no"?>
<!DOCTYPE svg PUBLIC "-//W3C//DTD SVG 20010904//EN"
 "http://www.w3.org/TR/2001/REC-SVG-20010904/DTD/svg10.dtd">
<svg version="1.0" xmlns="http://www.w3.org/2000/svg"
 width="350.000000pt" height="350.000000pt" viewBox="0 0 350.000000 350.000000"
 preserveAspectRatio="xMidYMid meet">
<metadata>
Created by potrace 1.11, written by Peter Selinger 2001-2013
</metadata>
<g transform="translate(0.000000,350.000000) scale(0.100000,-0.100000)"
fill="#000000" stroke="none">
<path d="M1657 2975 c-1 -2 -27 -5 -57 -9 -57 -6 -61 -7 -145 -26 -175 -40
-378 -143 -504 -257 l-54 -49 44 -51 c48 -56 73 -64 106 -34 35 33 153 111
214 142 123 62 287 108 398 113 27 1 48 8 55 18 15 21 13 125 -2 140 -10 10
-47 19 -55 13z"/>
<path d="M1798 2966 c-21 -11 -23 -18 -22 -79 1 -38 4 -71 7 -74 4 -3 23 -7
44 -8 50 -4 129 -17 181 -29 12 -4 30 -8 41 -10 23 -5 112 -41 166 -67 64 -31
95 -50 183 -117 53 -40 88 -60 96 -55 27 16 74 60 90 85 16 25 16 26 -28 66
-25 23 -78 63 -118 88 -82 53 -218 127 -218 120 0 -3 -25 6 -55 19 -30 14 -55
23 -55 20 0 -2 -11 0 -26 5 -14 6 -37 12 -52 15 -15 3 -38 7 -52 10 -25 5 -95
15 -137 20 -12 1 -33 -3 -45 -9z"/>
<path d="M2592 2527 c-29 -29 -52 -56 -52 -61 0 -10 61 -89 72 -94 5 -2 8 -8
8 -14 0 -5 10 -24 23 -41 44 -61 148 -287 132 -287 -3 0 0 -11 5 -25 15 -41
30 -119 34 -189 3 -51 22 -63 95 -61 71 2 89 14 85 58 -7 82 -14 139 -18 145
-2 4 -7 23 -10 42 -6 39 -32 134 -45 165 -29 68 -86 181 -93 183 -4 2 -8 8 -8
14 0 12 -61 102 -72 106 -4 2 -8 9 -8 17 0 10 -82 95 -93 95 -1 0 -26 -24 -55
-53z"/>
<path d="M795 2529 c-111 -123 -218 -337 -260 -521 -26 -111 -35 -231 -20
-246 7 -7 143 -8 150 -1 3 3 8 30 11 60 9 90 11 102 28 167 42 159 104 285
201 412 25 32 45 64 45 72 0 20 -79 98 -100 98 -10 0 -34 -18 -55 -41z"/>
<path d="M528 1702 c-28 -6 -27 -82 2 -222 6 -30 13 -66 16 -79 8 -41 65 -182
102 -250 46 -88 135 -213 174 -246 l31 -26 49 47 c26 27 48 55 48 64 0 8 -22
43 -50 77 -27 34 -50 65 -50 68 0 4 -8 19 -19 33 -52 76 -122 246 -134 332 -3
19 -8 46 -12 60 -3 14 -7 47 -10 74 -2 27 -8 53 -14 59 -10 10 -101 16 -133 9z"/>
<path d="M2829 1693 c-7 -7 -13 -32 -15 -56 -1 -23 -5 -55 -8 -72 -3 -16 -8
-43 -11 -60 -26 -139 -103 -303 -209 -444 -22 -29 -41 -59 -42 -66 -1 -7 22
-36 51 -65 l54 -53 43 44 c89 90 188 260 237 409 17 49 32 101 35 117 2 15 5
28 6 28 5 0 24 153 23 188 0 15 -3 31 -6 34 -3 3 -38 6 -76 7 -50 2 -75 -1
-82 -11z"/>
<path d="M2450 917 c-157 -142 -412 -250 -619 -261 -18 -1 -39 -10 -46 -19
-12 -16 -13 -132 -1 -144 7 -8 76 -7 126 1 19 3 49 7 65 10 44 6 175 42 210
57 17 7 32 13 35 13 3 1 11 5 18 9 6 5 12 5 12 0 0 -4 4 -3 8 2 4 6 38 26 77
45 117 59 255 167 255 200 0 25 -87 110 -112 110 -2 0 -14 -10 -28 -23z"/>
<path d="M958 895 c-21 -20 -38 -40 -38 -45 0 -6 -5 -10 -10 -10 -22 0 12 -41
79 -95 37 -30 72 -55 76 -55 5 0 16 -6 24 -14 42 -35 252 -132 311 -143 14 -2
43 -9 65 -15 54 -14 73 -18 125 -24 25 -3 58 -7 73 -9 45 -6 64 21 62 89 -1
31 -7 62 -13 68 -7 7 -31 13 -54 14 -43 2 -99 10 -130 20 -16 5 -38 10 -86 20
-84 17 -327 143 -340 176 -2 4 -8 8 -12 8 -5 0 -21 11 -36 25 -36 33 -52 31
-96 -10z"/>
</g>
</svg>
